<?xml version="1.0" encoding="utf-8"?>
<!-- Generator: Adobe Illustrator 22.0.1, SVG Export Plug-In . SVG Version: 6.00 Build 0)  -->
<svg version="1.1" id="Layer_1" xmlns="http://www.w3.org/2000/svg" xmlns:xlink="http://www.w3.org/1999/xlink" x="0px" y="0px"
	 viewBox="0 0 200 70.4" style="enable-background:new 0 0 200 70.4;" xml:space="preserve">
<style type="text/css">
	.st0{fill:#231F20;}
</style>
<path class="st0" d="M57.9,25.4c0.1,0,0.3,0,0.5-0.1c0.3,0,0.5-0.4,0.7-1l0-0.1c0.1-0.2,0.1-0.4,0.1-0.7c0-0.4-0.1-0.6-0.4-0.9
	c-0.3-0.3-0.6-0.4-1-0.4c0,0-0.2,0-0.5,0c-0.3,0-0.5,0.4-0.8,0.9c0,0,0,0.1-0.1,0.3c0,0.2-0.1,0.4-0.1,0.5c0,0.4,0.1,0.7,0.4,0.9
	C57.2,25.2,57.5,25.4,57.9,25.4z M189.6,25.4c0.1,0,0.3,0,0.5-0.1c0.3,0,0.5-0.4,0.7-1l0-0.1c0.1-0.2,0.1-0.4,0.1-0.7
	c0-0.4-0.1-0.6-0.4-0.9c-0.3-0.3-0.6-0.4-1-0.4c0,0-0.2,0-0.5,0c-0.3,0-0.5,0.4-0.8,0.9c0,0,0,0.1-0.1,0.3c0,0.2-0.1,0.4-0.1,0.5
	c0,0.4,0.1,0.7,0.4,0.9C188.9,25.2,189.2,25.4,189.6,25.4z M124.1,0.7c-0.3,0-0.6,0.1-0.9,0.2c-0.8,0.3-1.5,0.8-2,1.5
	c-1.4,1.7-2.5,3.5-3.5,5.5c-0.9,2-1.8,3.9-2.6,5.9c-1.7,4.1-3.1,8.7-4.5,14c-0.5,1.8-0.8,3.5-1.1,5.1c0,0.1,0,0.2,0,0.3
	c-0.1,0.1-0.3,0.1-0.4,0.3l-0.8,0.6c-2,1.7-4.2,2.8-6.5,3.2l-0.7,0c-0.4,0-0.8-0.1-1.2-0.2c-0.6-0.3-0.9-0.6-1.2-1.2
	c-0.3-0.7-0.5-1.4-0.5-2.1v-0.4c0-0.9-0.1-1.6-0.2-2c-0.4-0.6-0.8-0.9-1.3-0.9c-0.1,0-0.5,0.1-0.9,0.2c-0.1,0-0.2,0.1-0.3,0.2
	c-0.4-0.6-0.9-1.1-1.6-1.4c-0.4-0.2-0.8-0.3-1.2-0.3c-0.9,0-2,0.5-3.1,1.4c-1.4,1.2-2.4,2.6-3,4.2c-1.2,0.8-2.9,2-5.3,3.6
	c-1.2,0.8-2.2,1.5-3,2.1c-1.2-1.2-3-2.2-5.3-2.9c-0.6-0.2-1.2-0.4-1.8-0.7c-0.1-0.1-0.2-0.2-0.2-0.3c0-0.3,0.5-0.8,1.2-1.5
	c0.6-0.6,1.6-1.7,3-3.2c1.3-1.3,2.5-2.6,3.7-3.9c0.6-0.8,0.8-1.4,0.8-1.7c0-0.2,0-0.4-0.1-0.6c-0.3-0.6-0.8-1-1.6-1
	c-0.4,0-1,0.1-1.6,0.3c-5.7,1.5-8.8,3.5-9.6,5.9l0,0.3c0,0.9,0.5,1.3,1.5,1.3c0.7,0,1.1-0.4,1.2-1.3c0.1-0.5,0.3-0.8,0.7-1.1
	c0.4-0.3,0.7-0.6,1.1-0.8c1.8-1,3.6-1.7,5.6-2.1h0c-0.3,0.4-0.8,0.9-1.5,1.7c-2.2,2.3-3.8,3.9-4.7,4.8c-1.3,1.2-2,2.2-2,3.1
	c0,0.8,0.4,1.4,1.2,1.9c0.5,0.2,1.2,0.6,2.2,0.9c0.7,0.2,1.3,0.5,2.1,0.7c0.9,0.4,1.7,0.9,2.3,1.4l0,0c-0.2,0.1-0.4,0.3-0.5,0.3
	c-0.4,0.3-0.8,0.7-1.2,1c-0.9,0.7-1.7,1.3-2.4,2c-5.1,4.2-9.3,8.9-12.7,14c-1.3,2.2-2,3.4-2.2,3.8c-1.1,2.1-1.7,3.9-1.7,5.4
	c0,0.4,0.1,0.8,0.5,1.2c0.4,0.5,0.9,0.7,1.7,0.7c0.8,0,2-0.5,3.5-1.4c2.3-1.4,4.5-3,6.6-4.7c4.2-3.3,7.6-7.2,10.2-11.8l1.1-2.5
	c0.5-1.3,0.7-2.6,0.7-3.9c0-1.4-0.3-2.7-1-4c-0.1-0.2-0.3-0.5-0.5-0.7c0.5-0.3,1-0.6,1.4-0.9c1.4-1,3.3-2.2,5.8-3.8
	c-0.1,0.4-0.1,0.7-0.1,0.9c0,0.5,0.1,0.9,0.3,1.2l0.1,0.3l0.2,0.2c0.5,0.4,1.1,0.6,1.7,0.6c0.8,0,1.8-0.4,3-1.3
	c1.2-1,2.3-2.1,3.3-3.3c0.5-0.6,1-1.1,1.5-1.7l0,0c0,0,0,0.1,0,0.1l0,0.3c0.4,2.1,1.2,3.5,2.6,4.3c0.8,0.4,1.6,0.6,2.4,0.6
	c0.2,0,0.5,0,0.7,0h0.2c2.5-0.6,4.8-1.6,6.9-3.2l0.5-0.4c-0.3,1.8-0.4,3.2-0.4,4.1c0,0.8,0,1.5,0.1,2.3c0.1,1.6,0.8,2.9,1.9,3.8
	c0.5,0.4,1.2,0.6,2,0.6c1.2,0,2.4-0.6,3.8-1.7c2-1.7,3.8-3.6,5.4-5.9c2.2-2.9,3.3-4.4,3.3-4.5c0-0.3-0.2-0.5-0.5-0.5
	c-0.2,0-0.3,0.1-0.4,0.2c-2.6,3.4-5,6-6.9,7.7c-1.5,1.4-3,2.2-4.3,2.5c-0.1,0-0.3,0-0.4,0c-0.7,0-1.2-0.5-1.6-1.4
	c-0.5-1.2-0.8-2.7-0.8-4.5c0-0.8,0-1.6,0.1-2.3c0.1,0,0.2-0.1,0.3-0.2c3-2.6,6.1-6.9,9.1-13c3.1-6,5.2-12.3,6.3-18.8l0.1-0.8
	c0-0.3,0-0.7-0.2-1C125.5,1.2,124.9,0.7,124.1,0.7z M77,51.9c-2.3,4.4-5.5,8.2-9.7,11.4c-2.2,1.7-4.3,3.1-6.5,4.1
	c-1.1,0.5-1.9,0.8-2.5,0.8c-0.3,0-0.5-0.2-0.5-0.6c0-0.3,0.2-1.2,0.7-2.8c0.3-0.7,1.1-2.4,2.4-5c3.6-6.3,8.5-11.7,14.7-16.2
	c0.4-0.2,0.7-0.5,1.1-0.8c0.2-0.1,0.3-0.2,0.5-0.3c0.8,1.2,1.3,2.5,1.3,3.9C78.5,47.6,78,49.5,77,51.9z M93.8,32.8
	c-1.2,1.4-2.5,2.7-3.9,3.9l-0.4,0.2c-0.4,0.3-0.7,0.4-0.8,0.4s-0.2-0.1-0.2-0.2c0-0.2,0.1-0.5,0.3-1c0.5-1.2,1.3-2.3,2.3-3.2
	c0.6-0.4,1.2-0.5,1.7-0.5C93.3,32.3,93.7,32.5,93.8,32.8C93.8,32.7,93.8,32.8,93.8,32.8z M124,5.3c-0.4,2.3-0.9,4.4-1.4,6.2
	c-1.9,5.9-4.1,10.9-6.5,14.9c-1.8,3-3.6,5.4-5.4,7.1c0-0.1,0-0.3,0-0.4c0.8-5.9,2.6-12,5.4-18.2c0.9-2,1.9-4,2.9-5.8
	c1-1.8,2.3-3.5,3.8-5c0.5-0.5,0.8-0.7,1-0.7c0.2,0,0.3,0.2,0.3,0.7C124.1,4.6,124,4.9,124,5.3z M58.1,40l0.6-0.1
	c3.3-1.3,6.2-3,8.7-5c0.2-0.1,0.4-0.3,0.6-0.4c0.2-0.2,0.3-0.4,0.3-0.6c0-0.3-0.1-0.5-0.4-0.6c-0.1,0-0.2,0-0.3,0
	c-0.2,0-0.6,0.2-1,0.6c-0.3,0.3-0.7,0.6-1,0.8c-2.8,2.1-5.3,3.4-7.4,4l-0.2,0c-0.5,0.1-1,0.2-1.4,0.2c-0.8,0-1.2-0.4-1.3-1.2l0-0.8
	c0-0.1,0-0.3,0-0.4c0-0.1,0-0.3,0-0.4s0-0.3,0-0.4c0.2-1.8,0.9-3.8,2.1-5.9c0-0.1,0-0.3,0-0.5c0-0.3-0.1-0.6-0.4-0.8
	c-0.2-0.2-0.5-0.3-0.8-0.3c-0.1,0-0.2,0-0.5,0.1c-0.3,0-0.5,0.3-0.7,0.9c-0.2,1-0.4,2-0.7,3c-0.1,0.4-0.2,0.8-0.3,1.2
	c-0.1,0.1-0.3,0.1-0.5,0.3l-0.8,0.6c-2,1.7-4.2,2.8-6.5,3.2l-0.7,0c-0.4,0-0.8-0.1-1.2-0.2c-0.6-0.3-0.9-0.6-1.2-1.2
	c-0.3-0.7-0.5-1.4-0.5-2.1v-0.4c0-0.9-0.1-1.6-0.2-2c-0.4-0.6-0.8-0.9-1.3-0.9c-0.1,0-0.5,0.1-0.9,0.2c-0.1,0-0.2,0.1-0.3,0.2
	c-0.4-0.6-0.9-1.1-1.6-1.4c-0.4-0.2-0.8-0.3-1.2-0.3c-0.9,0-2,0.5-3.1,1.4c-1.4,1.3-2.4,2.7-3.1,4.4c-0.4,1-0.6,1.8-0.6,2.3
	c0,0.5,0.1,0.9,0.3,1.2l0.1,0.3l0.2,0.2c0.5,0.4,1.1,0.6,1.7,0.6c0.8,0,1.8-0.4,3-1.3c1.2-1,2.3-2.1,3.3-3.3c0.5-0.6,1-1.1,1.5-1.7
	l0,0c0,0,0,0.1,0,0.1l0,0.3c0.4,2.1,1.2,3.5,2.6,4.3c0.8,0.4,1.6,0.6,2.4,0.6c0.2,0,0.5,0,0.7,0h0.2c2.5-0.6,4.8-1.6,6.9-3.2
	l0.4-0.4l-0.1,0.4c0,0.3-0.1,0.7-0.1,1c0,0.5,0.1,1.2,0.2,1.8c0.2,0.7,0.7,1.2,1.6,1.6c0.4,0.1,0.8,0.2,1.2,0.2
	C56.9,40.3,57.4,40.2,58.1,40z M38.3,32.8c-1.2,1.4-2.5,2.7-3.9,3.9L34,36.9c-0.4,0.3-0.7,0.4-0.8,0.4S33,37.2,33,37.1
	c0-0.2,0.1-0.5,0.3-1c0.5-1.2,1.3-2.3,2.3-3.2c0.6-0.4,1.2-0.5,1.7-0.5C37.8,32.3,38.2,32.5,38.3,32.8
	C38.3,32.7,38.3,32.8,38.3,32.8z M199.6,33.3c-0.1,0-0.2,0-0.3,0c-0.2,0-0.6,0.2-1,0.6c-0.3,0.3-0.7,0.6-1,0.8
	c-2.8,2.1-5.3,3.4-7.4,4l-0.2,0c-0.5,0.1-1,0.2-1.4,0.2c-0.8,0-1.2-0.4-1.3-1.2l0-0.8c0-0.1,0-0.3,0-0.4c0-0.1,0-0.3,0-0.4
	s0-0.3,0-0.4c0.2-1.8,0.9-3.8,2.1-5.9c0-0.1,0-0.3,0-0.5c0-0.3-0.1-0.6-0.4-0.8c-0.2-0.2-0.5-0.3-0.8-0.3c-0.1,0-0.2,0-0.5,0.1
	c-0.3,0-0.5,0.3-0.7,0.9c-0.2,1-0.4,2-0.7,3c-0.2,0.6-0.3,1.3-0.5,1.9c-2.6,3.3-4.8,5.8-6.7,7.5c-1.5,1.4-3,2.2-4.3,2.5
	c-0.1,0-0.3,0-0.4,0c-0.7,0-1.2-0.5-1.6-1.4c-0.5-1.2-0.8-2.7-0.8-4.5c0-0.8,0-1.6,0.1-2.3c0.1,0,0.2-0.1,0.3-0.2
	c3-2.6,6.1-6.9,9.1-13c3.1-6,5.2-12.3,6.3-18.8l0.1-0.8c0-0.3,0-0.7-0.2-1c-0.4-0.8-1.1-1.3-1.9-1.3c-0.3,0-0.6,0.1-0.9,0.2
	c-0.8,0.3-1.5,0.8-2,1.5c-1.4,1.7-2.5,3.5-3.5,5.5c-0.9,2-1.8,3.9-2.6,5.9c-1.6,3.9-3,8.4-4.3,13.5c-4.2,1.3-6.8,2.2-7.7,2.4
	c0.1-0.8,0.1-1.7,0.2-2.5c0.9-9.6,1.3-16.8,1.3-21.5c0-2.1-0.2-3.6-0.7-4.4c-0.1-0.3-0.3-0.5-0.5-0.7c-0.1-0.1-0.2-0.2-0.3-0.3
	c-0.6-0.2-1-0.3-1.3-0.3c-0.3,0-0.6,0.1-0.9,0.3c-1.1,0.7-2.2,1.9-3.2,3.7c-2.8,4.4-5.2,9.1-7.2,14c-0.4,0.9-0.7,1.8-1.1,2.7
	c-1.7-1-3.5-1.5-5.5-1.6c-2.6,0-4.9,1-6.9,2.9c-0.4,0.4-0.7,0.7-0.9,1c-0.1,0.1-0.4,0.7-0.9,1.6c-0.6,1.2-0.8,2.3-0.8,3.1
	c0,1.1,0.4,2.2,1.1,3.2c0.4,0.6,0.8,0.9,1.2,1.2c0.5,0.3,1.5,0.7,3,1.2c0.8,0.2,1.8,0.4,2.9,0.4c0.6,0,1.2,0,1.8,0
	c-0.7,1.8-1.3,3.6-2,5.5c-1.1,3.2-2.3,6.1-3.6,8.8c-0.1,0.2-0.1,0.4-0.1,0.6c0,0.3,0.1,0.6,0.3,0.8c0.3,0.3,0.6,0.5,1.1,0.5
	c0,0,0.2,0,0.5,0c0.3,0,0.5-0.3,0.6-1c0.7-2.7,1.5-5.4,2.3-8.1l0.5-1.7c0.5-1.8,1.1-3.7,1.7-5.5c0.9-0.1,1.9-0.1,3-0.3
	c2.4-0.3,4.5-0.5,6.4-0.8c0.3,1.1,0.6,2.3,0.8,3.6c0.2,1,0.4,2.3,0.6,3.7c0.4,3,0.6,6.4,0.6,10.3V51l-0.1,3.9c0,0.2,0,0.5,0.1,0.6
	c0.4,1.3,0.8,1.9,1.4,1.9c0.4,0,0.8-0.3,1.3-0.9c0.1-0.1,0.2-0.4,0.2-0.8c0.1-0.7,0.2-1.8,0.4-3.2c0.9-6.6,1.8-13.9,2.5-21.9
	c4-1.1,6.4-1.8,7.1-2c0.1,0,0.2,0,0.3-0.1c-0.4,1.6-0.7,3-0.9,4.3c-0.5,3-0.7,5.1-0.7,6.4c0,0.8,0,1.5,0.1,2.3
	c0.1,1.6,0.8,2.9,1.9,3.8c0.5,0.4,1.2,0.6,2,0.6c1.2,0,2.4-0.6,3.8-1.7c2-1.7,3.8-3.6,5.4-5.9c0.7-1,1.3-1.8,1.8-2.4
	c0,0.2,0,0.4,0,0.6c0,0.5,0.1,1.2,0.2,1.8s0.7,1.2,1.6,1.6c0.4,0.1,0.8,0.2,1.2,0.2c0.4,0,0.9-0.1,1.5-0.3l0.6-0.1
	c3.3-1.3,6.2-3,8.7-5c0.2-0.1,0.4-0.3,0.6-0.4c0.2-0.2,0.3-0.4,0.3-0.6C200,33.6,199.9,33.4,199.6,33.3z M146.3,32.4
	c-1.8-0.1-3.3-0.3-4.5-0.7l-1.2-0.5c-1.7-0.7-2.5-1.8-2.5-3.2v-0.6c0-0.4,0.2-1,0.5-1.7l0.2-0.4c1.1-2.1,2.8-3.3,5-3.8
	c0.7-0.1,1.2-0.2,1.5-0.2c1.8,0,3.4,0.5,4.9,1.3C148.8,25.8,147.6,29.1,146.3,32.4z M148.4,32.5c-0.3,0-0.6,0-0.9,0
	c1.1-3.1,2.2-6.2,3.5-9.3c0.2,0.1,0.3,0.2,0.5,0.4c1,0.9,1.8,1.8,2.4,2.6c1,1.5,1.8,3.3,2.4,5.5C153.3,32.2,150.7,32.5,148.4,32.5z
	 M160.5,51.7C160.5,51.8,160.5,51.8,160.5,51.7c-0.2-1.7-0.4-3.1-0.5-4.1c-0.6-6.1-1.3-11.2-2.3-15.3c1.7-0.3,3.2-0.6,4.5-1
	c0.4-0.1,0.8-0.2,1.2-0.3C162.8,38.3,161.8,45.3,160.5,51.7z M163.6,29.2c0,0.3,0,0.6-0.1,0.8c-1.8,0.4-3.6,0.8-5.3,1.2
	c-0.2,0-0.4,0.1-0.6,0.1c-0.2-0.8-0.4-1.5-0.6-2.2c-0.8-2.7-2-4.9-3.7-6.5c-0.5-0.5-1-0.9-1.6-1.3c0.2-0.6,0.5-1.2,0.8-1.8
	c2.4-5.5,4.8-9.8,7.1-13c1.2-1.8,2.4-3,3.6-3.8c0.1-0.1,0.3-0.2,0.5-0.3c0,0,0,0,0,0c0,0,0,0,0,0c0,0,0,0,0,0
	c-0.1,0-0.1,0.1-0.2,0.1c-0.1,0-0.1,0-0.2,0c0,0-0.1,0-0.1,0c0,0.1,0,0.2,0.1,0.3c0.2,0.4,0.3,0.9,0.4,1.4c0.4,2.1,0.5,4.2,0.5,6.4
	C164.4,17,164.1,23.1,163.6,29.2z M172,33.1c0.2-1.6,0.5-3.2,0.9-4.8c0.2,0,0.4-0.1,0.6-0.2c0.3-0.1,0.4-0.3,0.4-0.6
	c0-0.4-0.2-0.5-0.5-0.5l-0.2,0c0,0,0,0,0,0c1-4,2.4-8,4.2-12.1c0.9-2,1.9-4,2.9-5.8s2.3-3.5,3.8-5c0.5-0.5,0.8-0.7,1-0.7
	c0.2,0,0.3,0.2,0.3,0.7c0,0.4,0,0.8-0.1,1.1c-0.4,2.3-0.9,4.4-1.4,6.2c-1.9,5.9-4.1,10.9-6.5,14.9c-1.8,3-3.6,5.4-5.4,7.1
	C172,33.4,172,33.2,172,33.1z M19.8,24.8c2.4-0.4,5.9-0.9,10.7-1.5c0.4-0.1,0.6-0.3,0.6-0.7c0-0.5-0.2-0.7-0.7-0.7h-0.1
	c-5.9,1.1-11,1.8-15.3,2c0.7-3,1.5-6,2.4-9c0.2-0.5,0.3-1,0.4-1.4c0.5-1.7,1.1-3.3,1.6-4.8c0.5-1.5,1-2.7,1.5-3.7
	c1.3-0.2,2.6-0.3,4-0.4c3.4-0.3,6.7-0.5,10.1-0.7c3.5-0.2,6-0.3,7.5-0.3c3.6,0,7.3,0.3,10.9,0.8c0.6,0,0.9-0.4,0.9-1
	s-0.3-0.9-0.9-0.9c-1.9,0-3.9,0-5.8,0c-3.5,0-7.1,0.1-10.5,0.2c-7.2,0.5-11.7,0.8-13.4,0.9c-0.7,0-1.3,0.1-2,0.2
	c0,0,0.1-0.1,0.1-0.1c0.2-0.3,0.3-0.7,0.3-1.1c0-0.2-0.1-0.5-0.3-0.9c-0.2-0.3-0.6-0.5-1.1-0.5c-0.5,0-0.8,0.3-1.2,0.8
	C19.2,2.6,19,3.3,18.8,4C14.2,4.6,10,5.4,6.1,6.5C3.6,7.2,1.9,8,1.1,8.7C0.4,9.3,0,10,0,10.8c0,0.5,0.2,1,0.6,1.6
	c0.4,0.6,1,1.2,1.8,1.7l0,0c1.6,1.2,2.9,2.1,3.8,2.9c1.6,1.3,2.9,2.9,4.1,4.7l0.5,0.9c0.3,0.5,0.5,1,0.7,1.4c-0.2,0-0.5,0-0.7,0
	c-0.7,0-1.3,0-1.7,0l-0.3,0c-0.6,0-1,0.2-1.2,0.6c-0.1,0.2-0.1,0.4-0.1,0.6c0,0.9,0.5,1.3,1.4,1.3c1.2-0.2,2.3-0.4,3.5-0.6
	c0,0,0,0.1,0,0.1c0.2,0.7,0.4,1.3,0.6,2c-0.7,3.6-1.4,7.2-2.1,10.8c-0.1,0.6-0.2,1.3-0.3,1.9c-0.3,1.7-0.5,3.3-0.5,5v0.6
	c0,1.3,0.3,2.1,0.8,2.5c0.3,0.2,0.8,0.3,1.4,0.3h0.2c0.6,0,1.1-0.4,1.4-0.9c0.4-0.6,0.6-1.2,0.8-1.8c0.7-2.2,1-4.8,1-7.9
	c0-4.1-0.6-8.2-1.7-12.1c0.1-0.3,0.1-0.6,0.2-0.9C16.2,25.4,18,25.1,19.8,24.8z M14.3,37.3c0,2.8-0.3,5-0.8,6.8
	c-0.5,1.7-0.8,2.5-1,2.5c-0.2,0-0.3-1.6-0.3-4.9l0-2.5l0.1-1.2c0.1-0.8,0.2-1.6,0.3-2.4c0.3-1.8,0.6-3.7,0.9-5.5
	C14.1,32.4,14.3,34.8,14.3,37.3z M14,23.9c-0.2,0-0.4,0-0.6,0c-0.3-0.8-0.7-1.5-1-2.2l-0.5-1c-1.2-2-2.6-3.7-4.3-5.3
	c-0.7-0.7-1.5-1.3-2.2-2c-0.5-0.4-1-0.8-1.5-1.3c-0.1-0.1-0.2-0.3-0.4-0.4c-0.6-0.6-0.9-1-0.9-1.3c0-0.1,0-0.2,0-0.2c0,0,0,0,0.1,0
	c0.1,0.1,0.1,0.2,0.1,0.2c0,0,0.1,0,0.2-0.1c0,0,0.1,0,0.1-0.1c0.1,0,0.1-0.1,0.2-0.2c1.1-0.7,2.3-1.3,3.5-1.8
	c2.6-1,5.2-1.8,7.9-2.4c1.2-0.3,2.5-0.5,3.7-0.7c-0.7,2.6-1.5,5.7-2.3,9.2C15.3,17.6,14.6,20.7,14,23.9z"/>
</svg>
